<svg xmlns="http://www.w3.org/2000/svg" width="32" height="32" viewBox="0 0 24 24"><path fill="currentColor" d="M5 19q-.825 0-1.412-.587T3 17V8q-.425 0-.712-.288T2 7t.288-.712T3 6h3v-.5q0-.425.288-.712T7 4.5h2q.425 0 .713.288T10 5.5V6h3q.425 0 .713.288T14 7t-.288.713T13 8v9q0 .825-.587 1.413T11 19zm11-1q-.425 0-.712-.288T15 17t.288-.712T16 16h2q.425 0 .713.288T19 17t-.288.713T18 18zm0-4q-.425 0-.712-.288T15 13t.288-.712T16 12h4q.425 0 .713.288T21 13t-.288.713T20 14zm0-4q-.425 0-.712-.288T15 9t.288-.712T16 8h5q.425 0 .713.288T22 9t-.288.713T21 10z"/></svg>