<svg xmlns="http://www.w3.org/2000/svg" width="32" height="32" xmlns:xlink="http://www.w3.org/1999/xlink" fill="none" viewBox="0 0 24 24" focusable="false" aria-hidden="true"><g><g><path d="M5.9999978125,4.0176934375L18.0000078125,4.0176934375C18.4970078125,4.0176934375,18.9000078125,3.6147534375,18.9000078125,3.1176944375C18.9000078125,2.6206384375,18.4970078125,2.2176944613,18.0000078125,2.2176944613L5.9999978125,2.2176944613C5.5029478125,2.2176944613,5.0999978125,2.6206384375,5.0999978125,3.1176944375C5.0999978125,3.6147534375,5.5029478125,4.0176934375,5.9999978125,4.0176934375ZM3.1960448125,16.8951734375L2.8022507125,11.1750534375Q2.6749484125,9.3258934375,2.7196047125,8.6725834375Q2.8020806125,7.4659834375,3.4361238125,6.7867934375Q4.0701678125,6.1076034375,5.2682578125,5.9424434375Q5.9169578125,5.8530234375,7.7704578125,5.8530234375L16.2294078125,5.8530234375Q18.0829078125,5.8530234375,18.7316078125,5.9424434375Q19.9297078125,6.1076034375,20.5638078125,6.7867934375Q21.1978078125,7.4659934375,21.2803078125,8.6725834375Q21.3249078125,9.3259034375,21.1976078125,11.1750234375L20.8039078125,16.8951734375Q20.6913078125,18.5299734375,20.5753078125,19.1062734375Q20.3615078125,20.1678734375,19.7462078125,20.7422734375Q19.1309078125,21.3166734375,18.0572078125,21.4569734375Q17.474207812499998,21.5331734375,15.8356078125,21.5331734375L8.1642578125,21.5331734375Q6.5256978125,21.5331734375,5.9427178125,21.4569734375Q4.8689478125,21.3166734375,4.2536678125,20.7422734375Q3.6383718125,20.1678734375,3.4246308125000002,19.1062734375Q3.3085848125,18.5299734375,3.1960448125,16.8951734375ZM14.6375078125,8.530113437499999C14.7011078125,8.5104734375,14.7673078125,8.5004834375,14.8339078125,8.5004834375C15.2018078125,8.5004834375,15.4999078125,8.7986734375,15.4999078125,9.1665134375L15.4999078125,15.5220734375L15.4819078125,15.5220734375C15.4827078125,15.5418734375,15.4831078125,15.5618734375,15.4831078125,15.5818734375C15.4831078125,16.379873437500002,14.8362078125,17.0268734375,14.0382078125,17.0268734375C13.2402078125,17.0268734375,12.5932578125,16.379873437500002,12.5932578125,15.5818734375C12.5932578125,14.7838734375,13.2402078125,14.1369734375,14.0382078125,14.1369734375C14.2953078125,14.1369734375,14.5367078125,14.2040734375,14.7459078125,14.3218734375L14.7459078125,11.0771534375L10.3793178125,12.4171734375L10.3793178125,16.8837734375C10.386277812500001,16.9412734375,10.3898678125,16.9997734375,10.3898678125,17.0591734375C10.3898678125,17.857173437500002,9.742947812499999,18.5041734375,8.9449278125,18.5041734375C8.1469178125,18.5041734375,7.4999978125,17.857173437500002,7.4999978125,17.0591734375C7.4999978125,16.2611734375,8.1469178125,15.6142734375,8.9449278125,15.6142734375C9.190897812500001,15.6142734375,9.422507812500001,15.6756734375,9.6252478125,15.7840734375L9.6252478125,10.5687534375C9.6252478125,10.2765934375,9.8156578125,10.0185334375,10.0948278125,9.932363437500001L14.6375078125,8.530113437499999Z" fill-rule="evenodd" fill="currentColor" fill-opacity="1"></path></g></g></svg>
