<svg xmlns="http://www.w3.org/2000/svg" width="32" height="32" viewBox="0 0 24 24"><path fill="currentColor" d="M12 22q-1.875 0-3.512-.712t-2.85-1.925t-1.925-2.85T3 13t.713-3.512t1.924-2.85t2.85-1.925T12 4h.15l-.85-.85q-.3-.3-.288-.7t.288-.7q.3-.3.713-.312t.712.287L15.3 4.3q.3.3.3.7t-.3.7l-2.575 2.575q-.3.3-.712.288T11.3 8.25q-.275-.3-.288-.7t.288-.7l.85-.85H12Q9.075 6 7.038 8.038T5 13t2.038 4.963T12 20t4.963-2.037T19 13q0-.425.288-.712T20 12t.713.288T21 13q0 1.875-.712 3.513t-1.925 2.85t-2.85 1.925T12 22m1-6h-2.75q-.325 0-.537-.213T9.5 15.25t.213-.537t.537-.213h2.25v-1h-2.25q-.325 0-.537-.213T9.5 12.75v-2q0-.325.213-.537T10.25 10h3q.325 0 .538.213t.212.537t-.213.538t-.537.212H11v1h2.25q.325 0 .538.213t.212.537V15q0 .425-.288.713T13 16"/></svg>