<svg xmlns="http://www.w3.org/2000/svg" width="32" height="32" viewBox="0 0 24 24"><g fill="none" fill-rule="evenodd"><path d="M24 0v24H0V0zM12.593 23.258l-.011.002l-.071.035l-.02.004l-.014-.004l-.071-.035c-.01-.004-.019-.001-.024.005l-.004.01l-.017.428l.005.02l.01.013l.104.074l.015.004l.012-.004l.104-.074l.012-.016l.004-.017l-.017-.427c-.002-.01-.009-.017-.017-.018m.265-.113l-.013.002l-.185.093l-.01.01l-.003.011l.018.43l.005.012l.008.007l.201.093c.012.004.023 0 .029-.008l.004-.014l-.034-.614c-.003-.012-.01-.02-.02-.022m-.715.002a.023.023 0 0 0-.027.006l-.006.014l-.034.614c0 .012.007.02.017.024l.015-.002l.201-.093l.01-.008l.004-.011l.017-.43l-.003-.012l-.01-.01z"/><path fill="currentColor" d="M17.5 6.5H20a1.5 1.5 0 0 1 0 3h-3A2.5 2.5 0 0 1 14.5 7V4a1.5 1.5 0 0 1 3 0zM4 6.5h2.5V4a1.5 1.5 0 1 1 3 0v3A2.5 2.5 0 0 1 7 9.5H4a1.5 1.5 0 1 1 0-3m0 11h2.5V20a1.5 1.5 0 0 0 3 0v-3A2.5 2.5 0 0 0 7 14.5H4a1.5 1.5 0 0 0 0 3m16 0h-2.5V20a1.5 1.5 0 0 1-3 0v-3a2.5 2.5 0 0 1 2.5-2.5h3a1.5 1.5 0 0 1 0 3"/></g></svg>