<svg xmlns="http://www.w3.org/2000/svg" width="32" height="32" viewBox="0 0 24 24"><path fill="currentColor" d="M11.95 18q.525 0 .888-.363t.362-.887t-.362-.888t-.888-.362t-.887.363t-.363.887t.363.888t.887.362m.05 4q-2.075 0-3.9-.788t-3.175-2.137T2.788 15.9T2 12t.788-3.9t2.137-3.175T8.1 2.788T12 2t3.9.788t3.175 2.137T21.213 8.1T22 12t-.788 3.9t-2.137 3.175t-3.175 2.138T12 22m.1-14.3q.625 0 1.088.4t.462 1q0 .55-.337.975t-.763.8q-.575.5-1.012 1.1t-.438 1.35q0 .35.263.588t.612.237q.375 0 .638-.25t.337-.625q.1-.525.45-.937t.75-.788q.575-.55.988-1.2t.412-1.45q0-1.275-1.037-2.087T12.1 6q-.95 0-1.812.4T8.975 7.625q-.175.3-.112.638t.337.512q.35.2.725.125t.625-.425q.275-.375.688-.575t.862-.2"/></svg>