<?xml version="1.0" standalone="no"?><!DOCTYPE svg PUBLIC "-//W3C//DTD SVG 1.1//EN" "http://www.w3.org/Graphics/SVG/1.1/DTD/svg11.dtd"><svg t="1723795622287" class="icon" viewBox="0 0 1024 1024" version="1.1" xmlns="http://www.w3.org/2000/svg" p-id="8321" data-spm-anchor-id="a313x.search_index.0.i4.49233a81OKjI9r" xmlns:xlink="http://www.w3.org/1999/xlink" width="256" height="256"><path d="M917.661538 295.384615c59.076923 0 106.338462 47.261538 106.338462 108.307693v216.615384c0 61.046154-47.261538 108.307692-106.338462 108.307693H106.338462c-59.076923 0-106.338462-47.261538-106.338462-108.307693v-216.615384C0 342.646154 47.261538 295.384615 106.338462 295.384615h811.323076z m0 21.661539H106.338462c-45.292308 0-82.707692 37.415385-84.676924 82.707692v220.553846c0 45.292308 35.446154 84.676923 80.738462 86.646154h815.261538c45.292308 0 82.707692-37.415385 84.676924-82.707692V403.692308c0-45.292308-35.446154-84.676923-80.738462-86.646154h-3.938462z" p-id="8322"></path><path d="M151.630769 626.215385v-110.276923h82.707693v110.276923h45.292307V387.938462h-45.292307v92.553846H151.630769v-94.523077H106.338462v240.246154h45.292307z m185.107693-196.923077c19.692308 0 23.630769-1.969231 23.630769-23.63077s-3.938462-23.630769-23.630769-23.630769-23.630769 1.969231-23.63077 23.630769c-1.969231 19.692308 3.938462 23.630769 23.63077 23.63077z m21.661538 198.892307v-187.076923H315.076923v187.076923h43.323077z m129.969231-1.96923v-90.584616h21.661538l59.076923 90.584616h49.23077L551.384615 531.692308c31.507692-7.876923 45.292308-29.538462 45.292308-68.923077 0-55.138462-27.569231-72.861538-92.553846-72.861539h-61.046154V630.153846l45.292308-3.938461z m11.815384-122.092308h-11.815384v-80.738462h11.815384c37.415385 0 53.169231 5.907692 53.169231 37.415385 0 35.446154-15.753846 43.323077-53.169231 43.323077zM704.984615 630.153846c29.538462 0 57.107692-5.907692 68.923077-13.784615v-35.446154c-13.784615 5.907692-39.384615 13.784615-59.076923 13.784615-35.446154 0-51.2-15.753846-53.169231-45.292307l120.123077-1.969231c0-5.907692 1.969231-15.753846 1.969231-23.630769 0-43.323077-13.784615-86.646154-76.8-86.646154-55.138462 0-86.646154 21.661538-86.646154 96.492307s27.569231 96.492308 84.676923 96.492308z m-45.292307-110.276923c0-31.507692 9.846154-49.230769 45.292307-49.230769 31.507692 0 35.446154 25.6 35.446154 49.230769h-80.738461z m192.984615 110.276923c47.261538 0 72.861538-15.753846 72.861539-59.076923 0-35.446154-13.784615-47.261538-53.169231-57.107692-27.569231-5.907692-33.476923-7.876923-33.476923-23.630769 0-15.753846 7.876923-19.692308 31.507692-19.692308 17.723077 0 35.446154 1.969231 45.292308 5.907692l1.96923-35.446154c-7.876923-3.938462-29.538462-5.907692-49.230769-5.907692-51.2 0-70.892308 19.692308-70.892307 55.138462 0 29.538462 9.846154 43.323077 49.230769 55.138461 31.507692 5.907692 37.415385 11.815385 37.415384 27.569231 0 17.723077-9.846154 21.661538-33.476923 21.661538-17.723077 0-37.415385-1.969231-55.138461-7.876923v37.415385c15.753846 3.938462 39.384615 5.907692 57.107692 5.907692z" p-id="8323" data-spm-anchor-id="a313x.search_index.0.i3.49233a81OKjI9r" class=""></path></svg>