<svg xmlns="http://www.w3.org/2000/svg" width="32" height="32" viewBox="0 0 24 24"><path fill="currentColor" d="M4 10.5c-.83 0-1.5.67-1.5 1.5s.67 1.5 1.5 1.5s1.5-.67 1.5-1.5s-.67-1.5-1.5-1.5m0-6c-.83 0-1.5.67-1.5 1.5S3.17 7.5 4 7.5S5.5 6.83 5.5 6S4.83 4.5 4 4.5m0 12c-.83 0-1.5.68-1.5 1.5s.68 1.5 1.5 1.5s1.5-.68 1.5-1.5s-.67-1.5-1.5-1.5M8 19h12c.55 0 1-.45 1-1s-.45-1-1-1H8c-.55 0-1 .45-1 1s.45 1 1 1m0-6h12c.55 0 1-.45 1-1s-.45-1-1-1H8c-.55 0-1 .45-1 1s.45 1 1 1M7 6c0 .55.45 1 1 1h12c.55 0 1-.45 1-1s-.45-1-1-1H8c-.55 0-1 .45-1 1"/></svg>