<svg xmlns="http://www.w3.org/2000/svg" width="32" height="32" viewBox="0 0 24 24"><path fill="currentColor" d="M16 20q-1.25 0-2.125-.875T13 17t.875-2.125T16 14q.275 0 .525.038T17 14.2V7q0-.425.288-.712T18 6h3q.425 0 .713.288T22 7t-.288.713T21 8h-2v9q0 1.25-.875 2.125T16 20M4 16q-.425 0-.712-.288T3 15t.288-.712T4 14h6q.425 0 .713.288T11 15t-.288.713T10 16zm0-4q-.425 0-.712-.288T3 11t.288-.712T4 10h10q.425 0 .713.288T15 11t-.288.713T14 12zm0-4q-.425 0-.712-.288T3 7t.288-.712T4 6h10q.425 0 .713.288T15 7t-.288.713T14 8z"/></svg>