<svg xmlns="http://www.w3.org/2000/svg" width="32" height="32" viewBox="0 0 24 24"><path fill="currentColor" d="M13 16h-2.75q-.325 0-.537-.213T9.5 15.25t.213-.537t.537-.213h2.25v-1h-2.25q-.325 0-.537-.213T9.5 12.75v-2q0-.325.213-.537T10.25 10h3q.325 0 .538.213t.212.537t-.213.538t-.537.212H11v1h2.25q.325 0 .538.213t.212.537V15q0 .425-.288.713T13 16m-1 6q-1.875 0-3.512-.712t-2.85-1.925t-1.925-2.85T3 13q0-.425.288-.712T4 12t.713.288T5 13q0 2.925 2.038 4.963T12 20t4.963-2.037T19 13t-2.037-4.962T12 6h-.15l.85.85q.3.3.288.7t-.288.7q-.3.3-.712.313t-.713-.288L8.7 5.7q-.3-.3-.3-.7t.3-.7l2.575-2.575q.3-.3.713-.288t.712.313q.275.3.288.7t-.288.7l-.85.85H12q1.875 0 3.513.713t2.85 1.925t1.925 2.85T21 13t-.712 3.513t-1.925 2.85t-2.85 1.925T12 22"/></svg>