<svg xmlns="http://www.w3.org/2000/svg" width="32" height="32" viewBox="0 0 24 24"><g fill="none" fill-rule="evenodd"><path d="M24 0v24H0V0zM12.594 23.258l-.012.002l-.071.035l-.02.004l-.014-.004l-.071-.036c-.01-.003-.019 0-.024.006l-.004.01l-.017.428l.005.02l.01.013l.104.074l.015.004l.012-.004l.104-.074l.012-.016l.004-.017l-.017-.427c-.002-.01-.009-.017-.016-.018m.264-.113l-.014.002l-.184.093l-.01.01l-.003.011l.018.43l.005.012l.008.008l.201.092c.012.004.023 0 .029-.008l.004-.014l-.034-.614c-.003-.012-.01-.02-.02-.022m-.715.002a.023.023 0 0 0-.027.006l-.006.014l-.034.614c0 .012.007.02.017.024l.015-.002l.201-.093l.01-.008l.003-.011l.018-.43l-.003-.012l-.01-.01z"/><path fill="currentColor" d="M16 15c1.306 0 2.418.835 2.83 2H20a1 1 0 1 1 0 2h-1.17a3.001 3.001 0 0 1-5.66 0H4a1 1 0 1 1 0-2h9.17A3.001 3.001 0 0 1 16 15m0 2a1 1 0 1 0 0 2a1 1 0 0 0 0-2M8 9a3 3 0 0 1 2.762 1.828l.067.172H20a1 1 0 0 1 .117 1.993L20 13h-9.17a3.001 3.001 0 0 1-5.592.172L5.17 13H4a1 1 0 0 1-.117-1.993L4 11h1.17A3.001 3.001 0 0 1 8 9m0 2a1 1 0 1 0 0 2a1 1 0 0 0 0-2m8-8c1.306 0 2.418.835 2.83 2H20a1 1 0 1 1 0 2h-1.17a3.001 3.001 0 0 1-5.66 0H4a1 1 0 0 1 0-2h9.17A3.001 3.001 0 0 1 16 3m0 2a1 1 0 1 0 0 2a1 1 0 0 0 0-2"/></g></svg>