<svg xmlns="http://www.w3.org/2000/svg" width="32" height="32" viewBox="0 0 24 24"><path fill="currentColor" d="M19 11.975q0-2.075-1.1-3.787t-2.95-2.563q-.375-.175-.55-.537t-.05-.738q.15-.4.538-.575t.787 0Q18.1 4.85 19.55 7.063T21 11.974t-1.45 4.913t-3.875 3.287q-.4.175-.788 0t-.537-.575q-.125-.375.05-.737t.55-.538q1.85-.85 2.95-2.562t1.1-3.788M7 15H4q-.425 0-.712-.288T3 14v-4q0-.425.288-.712T4 9h3l3.3-3.3q.475-.475 1.088-.213t.612.938v11.15q0 .675-.612.938T10.3 18.3zm9.5-3q0 1.05-.475 1.988t-1.25 1.537q-.25.15-.513.013T14 15.1V8.85q0-.3.263-.437t.512.012q.775.625 1.25 1.575t.475 2"/></svg>