<?xml version="1.0" standalone="no"?>
<!DOCTYPE svg PUBLIC "-//W3C//DTD SVG 20010904//EN"
 "http://www.w3.org/TR/2001/REC-SVG-20010904/DTD/svg10.dtd">
<svg version="1.0" xmlns="http://www.w3.org/2000/svg"
 width="512.000000pt" height="512.000000pt" viewBox="0 0 512.000000 512.000000"
 preserveAspectRatio="xMidYMid meet">
<metadata>
Created by potrace 1.14, written by Peter Selinger 2001-2017
</metadata>
<g transform="translate(0.000000,512.000000) scale(0.100000,-0.100000)"
fill="#000000" stroke="none">
<path d="M2400 4444 c-14 -2 -63 -8 -110 -14 -407 -50 -737 -184 -1077 -436
-124 -93 -348 -309 -406 -394 -100 -144 -190 -286 -223 -352 -101 -200 -199
-506 -226 -707 -17 -127 -22 -436 -8 -546 40 -338 161 -687 327 -942 138 -213
226 -319 372 -450 237 -211 471 -353 761 -460 147 -54 156 -57 330 -88 383
-71 516 -67 965 25 76 16 288 91 370 132 28 13 66 31 85 38 39 16 158 88 270
164 242 164 474 410 628 668 254 422 362 920 308 1408 -16 139 -23 172 -73
344 -80 273 -188 496 -346 711 -104 143 -302 348 -404 421 l-48 34 -192 0
c-184 0 -193 -1 -203 -21 -8 -14 -11 -271 -10 -882 1 -474 -1 -896 -5 -937
-29 -306 -228 -596 -507 -737 -207 -104 -426 -126 -663 -66 -168 43 -300 125
-453 283 -118 122 -203 310 -223 495 -10 86 -3 271 11 320 41 135 58 180 95
248 103 193 330 376 545 441 157 47 364 49 513 5 38 -11 78 -19 90 -17 l22 3
-3 635 c-2 349 -7 638 -10 642 -22 22 -413 47 -502 32z"/>
</g>
</svg>
